# xmcd CD database file
# Copyright (C) 1993-1998 Ti Kan
#
# Track frame offsets:
#	150
#	16391
#	34038
#	50612
#	65516
#	81367
#	94990
#	112441
#	126686
#	145651
#	159894
#	173660
#
# Disc length: 2578 seconds
#
# Revision: 1
# Processed by: cddbd v1.4b41PL1 Copyright (c) Steve Scherf et al.
# Submitted via: NotifyCDPlayer(CDDB) 1.51.1
#
DISCID=a90a100c
DTITLE=Jo Whitley - What Attitude
DYEAR=1900
DGENRE=
TTITLE0=Once In Awhile
TTITLE1=Better Days
TTITLE2=Sociably Liquored
TTITLE3=Red Rooster
TTITLE4=Give It Time
TTITLE5=High Ground
TTITLE6=Rose Petals
TTITLE7=Think Again
TTITLE8=She Never Dreamed
TTITLE9=Outta Sight, Outta Mind
TTITLE10=Footprints In The Sand
TTITLE11=Since I Met You Baby
EXTD=(c) 1998 BillyJo Music All Right Reserved\n\nAll songs by Jo Whitley.\n
EXTD=\nJo Whitley - vocals, acoustic guitar\nJim Sheane - Dobro, electric gu
EXTD=itar\n\nRecorded at Image Audio, Vernon, B.C., Canada\nin January 1998,
EXTD=engineered by Jeff Long
EXTT0=
EXTT1=
EXTT2=
EXTT3=
EXTT4=
EXTT5=
EXTT6=
EXTT7=
EXTT8=
EXTT9=
EXTT10=
EXTT11=
PLAYORDER=
